<svg id="Layer_2" data-name="Layer 2" xmlns="http://www.w3.org/2000/svg" viewBox="0 0 45 31"><defs><style>.cls-1{fill:#dd0c00;}</style></defs><title>Redmine</title><path class="cls-1" d="M-.19,31H8.42c.08-2.55.27-5.2.58-8L1.25,21A45.13,45.13,0,0,0-.19,31Z"/><path class="cls-1" d="M2,18.38l7.67,2.51A45.67,45.67,0,0,1,12,14.79L4.83,11.21A57,57,0,0,0,2,18.38Z"/><path class="cls-1" d="M43.57,21l-7.89,2.15A56.67,56.67,0,0,1,36.39,31H45A48.42,48.42,0,0,0,43.57,21Z"/><path class="cls-1" d="M40,11.21l-7.17,3.58a44.92,44.92,0,0,1,2.43,6.44l7.61-2.85A55.54,55.54,0,0,0,40,11.21Z"/><path class="cls-1" d="M32.09,2.6l-5,5.74A20.34,20.34,0,0,1,32,13l5.88-4.69A24.75,24.75,0,0,0,32.09,2.6Z"/><path class="cls-1" d="M12.81,2.6l5,5.74A19.75,19.75,0,0,0,13,13L7.07,8.34A24.56,24.56,0,0,1,12.81,2.6Z"/><path class="cls-1" d="M16.31,1.17l2.87,6.45a15.58,15.58,0,0,1,6.45,0L28.5,1.17A18.71,18.71,0,0,0,16.31,1.17Z"/></svg>